<?xml version="1.0" encoding="UTF-8"?>
<svg width="204px" height="190px" viewBox="0 0 204 190" version="1.1" xmlns="http://www.w3.org/2000/svg" xmlns:xlink="http://www.w3.org/1999/xlink">
    <!-- Generator: Sketch 51.3 (57544) - http://www.bohemiancoding.com/sketch -->
    <title>angular-logo</title>
    <desc>Created with Sketch.</desc>
    <defs></defs>
    <g id="angular-logo" stroke="none" stroke-width="1" fill="none" fill-rule="evenodd">
        <g id="Group-18" transform="translate(26.000000, 15.000000)">
            <polygon id="Fill-1" fill="#020203" points="0 25.5002 11 120.2502 71.5 153.5002 71.5 0.0002"></polygon>
            <polygon id="Fill-2" fill="#FECE03" points="71.4996 153.5 131.9996 120.25 142.9996 25.5 71.4996 0.001"></polygon>
            <g id="Group-17" transform="translate(11.000000, 18.500000)">
                <path d="M60.4479,82.4738 C60.4479,82.4738 60.9799,84.7938 66.9959,84.7938 L67.1029,91.6678 C67.1029,91.6678 63.9889,93.0228 60.4999,90.8988" id="Fill-3" fill="#E9BD04"></path>
                <path d="M60.3952,82.4304 L60.4942,74.5074 C60.3542,74.5324 60.2092,74.5714 60.0732,74.5894 L60.3952,82.4304 Z" id="Fill-5" fill="#BE9A08"></path>
                <path d="M95.4362,65.7815 C95.4362,65.7815 98.7302,61.9145 99.1602,52.8915 C99.5892,43.8685 93.0012,38.4265 86.9862,35.5625 C83.3402,33.8265 70.0182,33.8485 60.4992,34.1175 L60.4992,61.3525 C62.0842,61.6975 63.5342,62.0215 63.5342,62.0215 C63.5342,62.0215 62.1412,62.8695 60.5012,63.9645 L60.5182,74.5075 C66.1942,73.4735 74.1682,66.5335 74.1682,66.5335 C77.6052,76.5225 94.6842,83.7195 94.6842,83.7195 L86.9502,103.5905 L94.7192,103.7345 L102.3102,80.6765 L95.4362,65.7815 Z" id="Fill-7" fill="#E9BD04"></path>
                <path d="M60.4938,61.3508 C57.9748,60.8038 54.7458,60.1308 54.4868,60.1958 C54.0568,60.3038 44.9278,66.2108 44.9278,66.2108 L46.8608,95.7498 L44.8198,103.6978 L35.2608,103.9128 L40.9528,94.3528 C40.9528,94.3528 32.0378,70.3998 32.0378,65.7818 L19.4708,65.5668 L19.2558,73.6218 C19.2558,73.6218 20.6518,75.5558 23.3378,75.5558 L23.5528,82.6448 C23.5528,82.6448 17.2148,82.3228 13.2408,77.3818 C13.2408,77.3818 12.0588,64.0628 13.6708,62.0218 C15.2808,59.9808 28.8148,50.0988 28.8148,50.0988 C28.8148,50.0988 21.4038,34.3088 20.5448,33.9868 C19.6848,33.6648 16.6778,40.3248 16.0328,43.4388 C15.3888,46.5548 8.0848,48.7028 7.3328,40.7538 L7.7628,30.8718 L5.3988,23.8908 L5.3278,15.9418 L0.4588,10.9288 C0.4588,10.9288 17.0718,5.2008 29.1018,12.0748 C41.1328,18.9488 50.0118,34.5598 50.0118,34.5598 C50.0118,34.5598 54.3128,34.2918 60.4978,34.1168" id="Fill-9" fill="#343332"></path>
                <path d="M60.4997,90.8991 C58.0147,89.3861 55.1827,86.1071 53.3057,79.3151 C53.3057,79.3151 52.3387,70.2931 52.7687,69.5411 C53.0437,69.0601 57.4147,66.0201 60.4897,63.9621" id="Fill-11" fill="#343332"></path>
                <path d="M89.611,33.0202 C89.611,33.0202 101.334,26.9162 111.523,38.9282 C111.523,38.9282 116.25,43.4392 114.853,56.8662 C114.853,56.8662 113.457,63.3112 121.084,70.8302 C121.084,70.8302 110.564,69.8382 107.417,65.5622 C104.393,61.4552 102.914,58.0002 103.042,48.6872 C103.042,48.6872 102.729,38.8122 89.611,33.0202" id="Fill-13" fill="#E9BD04"></path>
                <path d="M60.6247,63.9582 L60.3747,63.9582 L47.7497,63.9582 L60.4997,32.8882 L73.2497,63.9582 L60.6247,63.9582 Z M60.6247,0.7682 L60.4997,0.4882 L60.3747,0.7682 L15.8747,100.3332 L32.3747,100.3332 C32.4997,100.3332 41.4997,77.7082 41.4997,77.7082 L60.3747,77.7082 L60.6247,77.7082 L79.4997,77.7082 C79.4997,77.7082 88.4997,100.3332 88.6247,100.3332 L105.1247,100.3332 L60.6247,0.7682 Z" id="Fill-15" fill="#FEFEFE"></path>
            </g>
        </g>
    </g>
</svg>